{"asset":{"version":"2.0","generator":"PAZO procedural low-poly category markers"},"scene":0,"scenes":[{"nodes":[0,1,2,3,4,5,6,7,8,9,10]}],"nodes":[{"name":"grooming_0","mesh":0,"translation":[0,0,0.18],"scale":[7.2,7.2,0.36]},{"name":"grooming_1","mesh":0,"translation":[0,0,1.65],"scale":[4.6,3.6,2.6]},{"name":"grooming_2","mesh":1,"translation":[0,0,3.08],"scale":[4.9,3.9,0.3]},{"name":"grooming_3","mesh":2,"translation":[0,-1.85,1.4],"scale":[1.15,0.15,1.9]},{"name":"grooming_4","mesh":3,"translation":[-1.55,-1.92,2.8],"scale":[0.8,0.18,0.8]},{"name":"grooming_5","mesh":3,"translation":[-0.65,-1.92,3.3],"scale":[0.58,0.18,0.58]},{"name":"grooming_6","mesh":3,"translation":[0.15,-1.92,3.48],"scale":[0.48,0.18,0.48]},{"name":"grooming_7","mesh":1,"translation":[1.28,-2.02,2.45],"scale":[0.76,0.18,0.62]},{"name":"grooming_8","mesh":1,"translation":[0.92,-2.02,2.92],"scale":[0.3,0.18,0.3]},{"name":"grooming_9","mesh":1,"translation":[1.28,-2.02,3.04],"scale":[0.3,0.18,0.3]},{"name":"grooming_10","mesh":1,"translation":[1.64,-2.02,2.92],"scale":[0.3,0.18,0.3]}],"meshes":[{"name":"grooming_cream","primitives":[{"attributes":{"POSITION":0,"NORMAL":1},"indices":2,"material":0}]},{"name":"grooming_pink","primitives":[{"attributes":{"POSITION":0,"NORMAL":1},"indices":2,"material":1}]},{"name":"grooming_dark","primitives":[{"attributes":{"POSITION":0,"NORMAL":1},"indices":2,"material":2}]},{"name":"grooming_blue","primitives":[{"attributes":{"POSITION":0,"NORMAL":1},"indices":2,"material":3}]}],"materials":[{"name":"cream","pbrMetallicRoughness":{"baseColorFactor":[0.98,0.973,0.961,1],"metallicFactor":0.02,"roughnessFactor":0.82}},{"name":"pink","pbrMetallicRoughness":{"baseColorFactor":[0.722,0.545,0.659,1],"metallicFactor":0.02,"roughnessFactor":0.82}},{"name":"dark","pbrMetallicRoughness":{"baseColorFactor":[0.125,0.306,0.29,1],"metallicFactor":0.02,"roughnessFactor":0.82}},{"name":"blue","pbrMetallicRoughness":{"baseColorFactor":[0.49,0.612,0.722,1],"metallicFactor":0.02,"roughnessFactor":0.82}}],"buffers":[{"byteLength":648,"uri":"data:application/octet-stream;base64,"}],"bufferViews":[{"buffer":0,"byteOffset":0,"byteLength":288,"target":34962},{"buffer":0,"byteOffset":288,"byteLength":288,"target":34962},{"buffer":0,"byteOffset":576,"byteLength":72,"target":34963}],"accessors":[{"bufferView":0,"componentType":5126,"count":24,"type":"VEC3","min":[-0.5,-0.5,-0.5],"max":[0.5,0.5,0.5]},{"bufferView":1,"componentType":5126,"count":24,"type":"VEC3"},{"bufferView":2,"componentType":5123,"count":36,"type":"SCALAR","min":[0],"max":[23]}]}