{"asset":{"version":"2.0","generator":"PAZO procedural low-poly category markers"},"scene":0,"scenes":[{"nodes":[0,1,2,3,4,5,6,7,8,9,10]}],"nodes":[{"name":"park_0","mesh":0,"translation":[0,0,0.18],"scale":[7.2,7.2,0.36]},{"name":"park_1","mesh":1,"translation":[0,0,0.43],"scale":[6.4,6.4,0.22]},{"name":"park_2","mesh":2,"translation":[-1.4,0.8,1.2],"scale":[0.4,0.4,1.6]},{"name":"park_3","mesh":1,"translation":[-1.4,0.8,2.35],"scale":[1.55,1.55,1.35]},{"name":"park_4","mesh":2,"translation":[1.15,1,1.15],"scale":[0.36,0.36,1.5]},{"name":"park_5","mesh":3,"translation":[1.15,1,2.25],"scale":[1.35,1.35,1.25]},{"name":"park_6","mesh":2,"translation":[0.55,-1.25,1],"scale":[0.32,0.32,1.2]},{"name":"park_7","mesh":1,"translation":[0.55,-1.25,1.9],"scale":[1.15,1.15,1.05]},{"name":"park_8","mesh":2,"translation":[-0.65,-0.15,0.9],"scale":[2,0.42,0.22]},{"name":"park_9","mesh":4,"translation":[-1.35,-0.15,0.58],"scale":[0.2,0.32,0.75]},{"name":"park_10","mesh":4,"translation":[0.05,-0.15,0.58],"scale":[0.2,0.32,0.75]}],"meshes":[{"name":"park_cream","primitives":[{"attributes":{"POSITION":0,"NORMAL":1},"indices":2,"material":0}]},{"name":"park_green","primitives":[{"attributes":{"POSITION":0,"NORMAL":1},"indices":2,"material":1}]},{"name":"park_brown","primitives":[{"attributes":{"POSITION":0,"NORMAL":1},"indices":2,"material":2}]},{"name":"park_lime","primitives":[{"attributes":{"POSITION":0,"NORMAL":1},"indices":2,"material":3}]},{"name":"park_dark","primitives":[{"attributes":{"POSITION":0,"NORMAL":1},"indices":2,"material":4}]}],"materials":[{"name":"cream","pbrMetallicRoughness":{"baseColorFactor":[0.98,0.973,0.961,1],"metallicFactor":0.02,"roughnessFactor":0.82}},{"name":"green","pbrMetallicRoughness":{"baseColorFactor":[0.431,0.624,0.447,1],"metallicFactor":0.02,"roughnessFactor":0.82}},{"name":"brown","pbrMetallicRoughness":{"baseColorFactor":[0.545,0.482,0.38,1],"metallicFactor":0.02,"roughnessFactor":0.82}},{"name":"lime","pbrMetallicRoughness":{"baseColorFactor":[0.882,0.898,0.247,1],"metallicFactor":0.02,"roughnessFactor":0.82}},{"name":"dark","pbrMetallicRoughness":{"baseColorFactor":[0.125,0.306,0.29,1],"metallicFactor":0.02,"roughnessFactor":0.82}}],"buffers":[{"byteLength":648,"uri":"data:application/octet-stream;base64,"}],"bufferViews":[{"buffer":0,"byteOffset":0,"byteLength":288,"target":34962},{"buffer":0,"byteOffset":288,"byteLength":288,"target":34962},{"buffer":0,"byteOffset":576,"byteLength":72,"target":34963}],"accessors":[{"bufferView":0,"componentType":5126,"count":24,"type":"VEC3","min":[-0.5,-0.5,-0.5],"max":[0.5,0.5,0.5]},{"bufferView":1,"componentType":5126,"count":24,"type":"VEC3"},{"bufferView":2,"componentType":5123,"count":36,"type":"SCALAR","min":[0],"max":[23]}]}