{"asset":{"version":"2.0","generator":"PAZO procedural low-poly category markers"},"scene":0,"scenes":[{"nodes":[0,1,2,3,4,5,6,7,8,9,10,11,12]}],"nodes":[{"name":"restaurant_0","mesh":0,"translation":[0,0.18,0],"scale":[7.2,0.36,7.2]},{"name":"restaurant_1","mesh":0,"translation":[0,1.65,0],"scale":[4.7,2.6,3.7]},{"name":"restaurant_2","mesh":1,"translation":[0,3.08,0],"scale":[5,0.3,4]},{"name":"restaurant_3","mesh":2,"translation":[0,1.35,1.9],"scale":[1,1.8,0.15]},{"name":"restaurant_4","mesh":3,"translation":[-1.45,1.65,1.9],"scale":[1.1,1,0.12]},{"name":"restaurant_5","mesh":3,"translation":[1.45,1.65,1.9],"scale":[1.1,1,0.12]},{"name":"restaurant_6","mesh":1,"translation":[-1.6,2.45,2.02],"scale":[0.72,0.28,0.75]},{"name":"restaurant_7","mesh":4,"translation":[-0.8,2.45,2.02],"scale":[0.72,0.28,0.75]},{"name":"restaurant_8","mesh":1,"translation":[0,2.45,2.02],"scale":[0.72,0.28,0.75]},{"name":"restaurant_9","mesh":4,"translation":[0.8,2.45,2.02],"scale":[0.72,0.28,0.75]},{"name":"restaurant_10","mesh":1,"translation":[1.6,2.45,2.02],"scale":[0.72,0.28,0.75]},{"name":"restaurant_11","mesh":5,"translation":[0,3.62,2.02],"scale":[1.45,0.9,0.22]},{"name":"restaurant_12","mesh":2,"translation":[0,3.62,2.16],"scale":[0.2,0.58,0.2]}],"meshes":[{"name":"restaurant_cream","primitives":[{"attributes":{"POSITION":0,"NORMAL":1},"indices":2,"material":0}]},{"name":"restaurant_orange","primitives":[{"attributes":{"POSITION":0,"NORMAL":1},"indices":2,"material":1}]},{"name":"restaurant_dark","primitives":[{"attributes":{"POSITION":0,"NORMAL":1},"indices":2,"material":2}]},{"name":"restaurant_blue","primitives":[{"attributes":{"POSITION":0,"NORMAL":1},"indices":2,"material":3}]},{"name":"restaurant_white","primitives":[{"attributes":{"POSITION":0,"NORMAL":1},"indices":2,"material":4}]},{"name":"restaurant_lime","primitives":[{"attributes":{"POSITION":0,"NORMAL":1},"indices":2,"material":5}]}],"materials":[{"name":"cream","pbrMetallicRoughness":{"baseColorFactor":[0.98,0.973,0.961,1],"metallicFactor":0.02,"roughnessFactor":0.82}},{"name":"orange","pbrMetallicRoughness":{"baseColorFactor":[0.847,0.608,0.408,1],"metallicFactor":0.02,"roughnessFactor":0.82}},{"name":"dark","pbrMetallicRoughness":{"baseColorFactor":[0.125,0.306,0.29,1],"metallicFactor":0.02,"roughnessFactor":0.82}},{"name":"blue","pbrMetallicRoughness":{"baseColorFactor":[0.49,0.612,0.722,1],"metallicFactor":0.02,"roughnessFactor":0.82}},{"name":"white","pbrMetallicRoughness":{"baseColorFactor":[1,1,1,1],"metallicFactor":0.02,"roughnessFactor":0.82}},{"name":"lime","pbrMetallicRoughness":{"baseColorFactor":[0.882,0.898,0.247,1],"metallicFactor":0.02,"roughnessFactor":0.82}}],"buffers":[{"byteLength":648,"uri":"data:application/octet-stream;base64,"}],"bufferViews":[{"buffer":0,"byteOffset":0,"byteLength":288,"target":34962},{"buffer":0,"byteOffset":288,"byteLength":288,"target":34962},{"buffer":0,"byteOffset":576,"byteLength":72,"target":34963}],"accessors":[{"bufferView":0,"componentType":5126,"count":24,"type":"VEC3","min":[-0.5,-0.5,-0.5],"max":[0.5,0.5,0.5]},{"bufferView":1,"componentType":5126,"count":24,"type":"VEC3"},{"bufferView":2,"componentType":5123,"count":36,"type":"SCALAR","min":[0],"max":[23]}]}