{"asset":{"version":"2.0","generator":"PAZO procedural low-poly category markers"},"scene":0,"scenes":[{"nodes":[0,1,2,3,4,5,6,7,8,9,10,11,12]}],"nodes":[{"name":"trail_0","mesh":0,"translation":[0,0.18,0],"scale":[7.2,0.36,7.2]},{"name":"trail_1","mesh":1,"translation":[0,0.43,0],"scale":[6.4,0.22,6.4]},{"name":"trail_2","mesh":0,"translation":[-1.7,0.62,1.2],"scale":[0.65,0.16,0.65]},{"name":"trail_3","mesh":0,"translation":[-1.1,0.62,0.6],"scale":[0.65,0.16,0.65]},{"name":"trail_4","mesh":0,"translation":[-0.55,0.62,0.1],"scale":[0.65,0.16,0.65]},{"name":"trail_5","mesh":0,"translation":[0.05,0.62,-0.42],"scale":[0.65,0.16,0.65]},{"name":"trail_6","mesh":0,"translation":[0.7,0.62,-0.92],"scale":[0.65,0.16,0.65]},{"name":"trail_7","mesh":0,"translation":[1.4,0.62,-1.3],"scale":[0.65,0.16,0.65]},{"name":"trail_8","mesh":1,"translation":[-1.45,1.65,-1.15],"scale":[0.32,2.25,0.32]},{"name":"trail_9","mesh":1,"translation":[1.45,1.65,-1.15],"scale":[0.32,2.25,0.32]},{"name":"trail_10","mesh":2,"translation":[0,2.75,-1.15],"scale":[3.2,0.42,0.4]},{"name":"trail_11","mesh":3,"translation":[-2.2,1.15,-0.45],"scale":[1.15,2,1.15]},{"name":"trail_12","mesh":3,"translation":[2,1,0.75],"scale":[1,1.7,1]}],"meshes":[{"name":"trail_cream","primitives":[{"attributes":{"POSITION":0,"NORMAL":1},"indices":2,"material":0}]},{"name":"trail_brown","primitives":[{"attributes":{"POSITION":0,"NORMAL":1},"indices":2,"material":1}]},{"name":"trail_dark","primitives":[{"attributes":{"POSITION":0,"NORMAL":1},"indices":2,"material":2}]},{"name":"trail_green","primitives":[{"attributes":{"POSITION":0,"NORMAL":1},"indices":2,"material":3}]}],"materials":[{"name":"cream","pbrMetallicRoughness":{"baseColorFactor":[0.98,0.973,0.961,1],"metallicFactor":0.02,"roughnessFactor":0.82}},{"name":"brown","pbrMetallicRoughness":{"baseColorFactor":[0.545,0.482,0.38,1],"metallicFactor":0.02,"roughnessFactor":0.82}},{"name":"dark","pbrMetallicRoughness":{"baseColorFactor":[0.125,0.306,0.29,1],"metallicFactor":0.02,"roughnessFactor":0.82}},{"name":"green","pbrMetallicRoughness":{"baseColorFactor":[0.431,0.624,0.447,1],"metallicFactor":0.02,"roughnessFactor":0.82}}],"buffers":[{"byteLength":648,"uri":"data:application/octet-stream;base64,"}],"bufferViews":[{"buffer":0,"byteOffset":0,"byteLength":288,"target":34962},{"buffer":0,"byteOffset":288,"byteLength":288,"target":34962},{"buffer":0,"byteOffset":576,"byteLength":72,"target":34963}],"accessors":[{"bufferView":0,"componentType":5126,"count":24,"type":"VEC3","min":[-0.5,-0.5,-0.5],"max":[0.5,0.5,0.5]},{"bufferView":1,"componentType":5126,"count":24,"type":"VEC3"},{"bufferView":2,"componentType":5123,"count":36,"type":"SCALAR","min":[0],"max":[23]}]}