{"asset":{"version":"2.0","generator":"PAZO procedural low-poly category markers"},"scene":0,"scenes":[{"nodes":[0,1,2,3,4,5,6,7]}],"nodes":[{"name":"veterinarian_0","mesh":0,"translation":[0,0.18,0],"scale":[7.2,0.36,7.2]},{"name":"veterinarian_1","mesh":1,"translation":[0,1.7,0],"scale":[4.7,2.7,3.7]},{"name":"veterinarian_2","mesh":2,"translation":[0,3.2,0],"scale":[5,0.3,4]},{"name":"veterinarian_3","mesh":3,"translation":[0,1.45,1.9],"scale":[1.1,2,0.15]},{"name":"veterinarian_4","mesh":2,"translation":[-1.45,1.75,1.9],"scale":[1.1,1,0.12]},{"name":"veterinarian_5","mesh":2,"translation":[1.45,1.75,1.9],"scale":[1.1,1,0.12]},{"name":"veterinarian_6","mesh":4,"translation":[0,3.02,2.02],"scale":[1.55,0.46,0.18]},{"name":"veterinarian_7","mesh":4,"translation":[0,3.02,2.02],"scale":[0.46,1.55,0.18]}],"meshes":[{"name":"veterinarian_cream","primitives":[{"attributes":{"POSITION":0,"NORMAL":1},"indices":2,"material":0}]},{"name":"veterinarian_white","primitives":[{"attributes":{"POSITION":0,"NORMAL":1},"indices":2,"material":1}]},{"name":"veterinarian_blue","primitives":[{"attributes":{"POSITION":0,"NORMAL":1},"indices":2,"material":2}]},{"name":"veterinarian_dark","primitives":[{"attributes":{"POSITION":0,"NORMAL":1},"indices":2,"material":3}]},{"name":"veterinarian_red","primitives":[{"attributes":{"POSITION":0,"NORMAL":1},"indices":2,"material":4}]}],"materials":[{"name":"cream","pbrMetallicRoughness":{"baseColorFactor":[0.98,0.973,0.961,1],"metallicFactor":0.02,"roughnessFactor":0.82}},{"name":"white","pbrMetallicRoughness":{"baseColorFactor":[1,1,1,1],"metallicFactor":0.02,"roughnessFactor":0.82}},{"name":"blue","pbrMetallicRoughness":{"baseColorFactor":[0.49,0.612,0.722,1],"metallicFactor":0.02,"roughnessFactor":0.82}},{"name":"dark","pbrMetallicRoughness":{"baseColorFactor":[0.125,0.306,0.29,1],"metallicFactor":0.02,"roughnessFactor":0.82}},{"name":"red","pbrMetallicRoughness":{"baseColorFactor":[0.847,0.416,0.408,1],"metallicFactor":0.02,"roughnessFactor":0.82}}],"buffers":[{"byteLength":648,"uri":"data:application/octet-stream;base64,"}],"bufferViews":[{"buffer":0,"byteOffset":0,"byteLength":288,"target":34962},{"buffer":0,"byteOffset":288,"byteLength":288,"target":34962},{"buffer":0,"byteOffset":576,"byteLength":72,"target":34963}],"accessors":[{"bufferView":0,"componentType":5126,"count":24,"type":"VEC3","min":[-0.5,-0.5,-0.5],"max":[0.5,0.5,0.5]},{"bufferView":1,"componentType":5126,"count":24,"type":"VEC3"},{"bufferView":2,"componentType":5123,"count":36,"type":"SCALAR","min":[0],"max":[23]}]}